<svg xmlns="http://www.w3.org/2000/svg" width="7.486" height="10.765" viewBox="0 0 7.486 10.765">
  <g id="Group_404" data-name="Group 404" transform="translate(-205.012 -327.221)">
    <path id="caret-down" d="M7.486,11.268a.45.45,0,0,1-.139.329L4.072,14.872a.459.459,0,0,1-.658,0L.139,11.6a.459.459,0,0,1,0-.658A.448.448,0,0,1,.468,10.8h6.55a.474.474,0,0,1,.468.468Z" transform="translate(205.012 322.975)" fill="#fff"/>
    <path id="caret-down-2" data-name="caret-down" d="M7.486.468A.45.45,0,0,1,7.347.8L4.072,4.072a.459.459,0,0,1-.658,0L.139.8A.45.45,0,0,1,0,.468.45.45,0,0,1,.139.139.448.448,0,0,1,.468,0h6.55a.45.45,0,0,1,.329.139.448.448,0,0,1,.139.329Z" transform="translate(212.498 331.432) rotate(180)" fill="#fff"/>
  </g>
</svg>
